# Blender v2.77 (sub 0) OBJ File: ''
# www.blender.org
mtllib cube.mtl
o Cube
v 1.090000 -1.089999 1.089998
v -1.089998 -1.089999 1.089998
v -1.089998 -1.089999 -1.089999
v 1.089999 -1.089998 -1.089998
v 1.089999 1.126379 1.089998
v -1.089999 1.126380 1.089999
v -1.089998 1.126380 -1.089999
v 1.089999 1.126379 -1.089999
vt 0.0023 0.4977
vt 1.0000 0.0000
vt 1.0000 0.4977
vt 1.0000 0.0001
vt 0.0023 0.4978
vt 0.0023 0.0001
vt 1.0000 0.9999
vt 0.0001 0.4977
vt 1.0023 -0.0000
vt 1.0023 0.4977
vt 1.0000 1.0000
vt 0.0023 0.4978
vt 1.0000 0.4978
vt 1.0022 0.4977
vt 0.0000 0.0000
vt 1.0022 0.0000
vt 0.0023 -0.0000
vt 1.0000 0.4978
vt 0.0023 0.9999
vt 0.0001 -0.0000
vt 0.0023 1.0000
vt 0.0000 0.4977
vn 0.0000 -1.0000 -0.0000
vn 0.0000 1.0000 -0.0000
vn 0.0000 0.0000 1.0000
vn -1.0000 -0.0000 0.0000
vn 0.0000 -0.0000 -1.0000
vn 1.0000 -0.0000 0.0000
usemtl Material
s off
f 2/1/1 4/2/1 1/3/1
f 5/4/2 7/5/2 6/6/2
f 5/7/3 2/1/3 1/3/3
f 6/8/4 3/9/4 2/10/4
f 7/11/5 4/12/5 3/13/5
f 5/14/6 4/15/6 8/16/6
f 2/1/1 3/17/1 4/2/1
f 5/4/2 8/18/2 7/5/2
f 5/7/3 6/19/3 2/1/3
f 6/8/4 7/20/4 3/9/4
f 7/11/5 8/21/5 4/12/5
f 5/14/6 1/22/6 4/15/6
